<svg width="102" height="33" viewBox="0 0 102 33" fill="none" xmlns="http://www.w3.org/2000/svg">
<g clip-path="url(#clip0)">
<path d="M11.5178 0.849609C5.65332 0.849609 0.913574 5.58936 0.913574 11.4538C0.913574 17.2915 5.65332 22.058 11.5178 22.058C17.3554 22.058 22.1219 17.3182 22.1219 11.4538C22.1755 5.58936 17.3822 0.849609 11.5178 0.849609ZM11.5178 21.094C6.21567 21.094 1.90437 16.7827 1.90437 11.4806C1.90437 6.17848 6.21567 1.8404 11.5178 1.8404C16.8198 1.8404 21.1579 6.1517 21.1579 11.4538C21.1579 16.7559 16.8198 21.094 11.5178 21.094Z" fill="#023430"/>
<path d="M15.9095 4.8396H15.1865V8.48144H7.87599V4.8396H7.1262C4.98394 6.25885 3.5647 8.72245 3.5647 11.4806C3.5647 14.2655 4.98394 16.6756 7.1262 18.1216H7.87599V14.4262H15.1865V18.0681H15.9095C18.0785 16.6488 19.471 14.2388 19.471 11.427C19.471 8.69567 18.0517 6.25885 15.9095 4.8396ZM6.91198 16.622C5.43917 15.3367 4.60905 13.4622 4.60905 11.427C4.60905 9.41868 5.49273 7.51742 6.91198 6.23207V16.622ZM15.1865 13.4354H7.87599V9.44546H15.1865V13.4354ZM16.1773 16.622V6.28562C17.6501 7.57098 18.4802 9.44546 18.4802 11.4806C18.507 13.4622 17.6501 15.3367 16.1773 16.622Z" fill="#023430"/>
<path fill-rule="evenodd" clip-rule="evenodd" d="M43.6516 11.1592C43.6516 11.1592 45.6868 10.4897 45.6868 8.29389C45.6868 5.6964 43.7587 4.4646 41.1077 4.4646H34.1721V18.4696H41.7236C44.0265 18.4696 46.3562 16.9433 46.3562 14.56C46.3027 11.7215 43.6516 11.1592 43.6516 11.1592ZM37.814 7.35665H40.4918C41.2951 7.35665 41.8843 7.89221 41.8843 8.69556C41.8843 9.31146 41.3487 9.98092 40.3847 9.98092H37.7604L37.814 7.35665ZM40.5186 15.4972H37.8407V12.7391H40.465C41.8039 12.7391 42.393 13.2746 42.393 14.1048C42.3663 15.1223 41.6165 15.4972 40.5186 15.4972Z" fill="#023430"/>
<path fill-rule="evenodd" clip-rule="evenodd" d="M54.3093 4.08984C50.0516 4.08984 47.5344 7.33001 47.5344 11.4003C47.5344 15.5242 50.0516 18.7375 54.3093 18.7375C58.5938 18.7375 61.0842 15.4974 61.0842 11.4003C61.111 7.30323 58.6206 4.08984 54.3093 4.08984ZM54.3093 15.3903C52.1938 15.3903 51.1763 13.6229 51.1763 11.4003C51.1763 9.23127 52.1938 7.41035 54.3093 7.41035C56.4248 7.41035 57.4692 9.17771 57.4692 11.4003C57.4692 13.5961 56.398 15.3903 54.3093 15.3903Z" fill="#023430"/>
<path fill-rule="evenodd" clip-rule="evenodd" d="M68.9839 9.90065L68.4484 9.79353C67.1898 9.55253 66.199 9.25797 66.199 8.40106C66.199 7.4906 67.163 7.11571 67.9931 7.11571C69.2517 7.11571 70.2961 7.70483 71.0191 8.40106L73.2952 6.23203C72.2777 5.10734 70.5371 4.06299 67.9128 4.06299C64.8601 4.08977 62.4768 5.72324 62.4768 8.4814C62.4768 10.9718 64.4049 12.2571 66.681 12.6856L67.2166 12.7927C69.1446 13.1944 69.8408 13.4622 69.8408 14.3191C69.8408 15.1224 69.0643 15.6847 67.8593 15.6847C66.3865 15.6847 65.1011 15.0956 64.1103 13.8906L61.7271 16.0596C63.0124 17.5324 64.6459 18.7107 67.886 18.7107C70.671 18.7107 73.5898 17.2111 73.5898 14.1584C73.6166 10.945 71.0726 10.3291 68.9839 9.90065Z" fill="#023430"/>
<path fill-rule="evenodd" clip-rule="evenodd" d="M81.8374 15.3902C80.2039 15.3902 78.5169 14.1048 78.5169 11.3199C78.5169 8.82951 80.0701 7.41027 81.7571 7.41027C83.0424 7.41027 83.819 7.99939 84.4349 8.96341L87.4341 7.08893C85.9613 4.94667 84.1671 4.06299 81.7571 4.06299C77.3119 4.06299 74.9019 7.35671 74.9019 11.2931C74.9019 15.4437 77.5797 18.7375 81.7303 18.7375C84.6491 18.7375 86.0416 17.7467 87.5412 15.7115L84.5152 13.7835C83.9261 14.7207 83.2834 15.3902 81.8374 15.3902Z" fill="#023430"/>
<path fill-rule="evenodd" clip-rule="evenodd" d="M97.3153 4.41113V9.57933H92.8702V4.41113H88.9873V18.4162H92.8702V12.8998H97.3153V18.4429H101.225V4.41113H97.3153Z" fill="#023430"/>
<path d="M34.1721 32.7156H34.9487V25.9675H34.1721V32.7156ZM36.7428 32.7156H37.5194V29.6897C37.5194 29.3148 37.6265 29.0202 37.814 28.7792C38.055 28.5115 38.4031 28.3776 38.8048 28.3776C39.1529 28.3776 39.3939 28.4847 39.5545 28.6454C39.7688 28.8596 39.8223 29.1541 39.8223 29.6094V32.7156H40.5989V29.6629C40.5989 29.0738 40.465 28.6186 40.224 28.2705C39.9562 27.8956 39.501 27.6813 38.9654 27.6813C38.2424 27.6813 37.7872 27.9491 37.4658 28.5382V27.7884H36.6893V32.7156H36.7428Z" fill="#023430"/>
<path d="M43.1161 32.7157H44.0266L45.6869 27.7885H44.8835L43.5982 31.9391L42.2592 27.7885H41.4023L43.1161 32.7157ZM50.4802 31.9391L49.891 31.4571C49.7304 31.6981 49.5162 31.8588 49.3019 31.9659C49.0877 32.073 48.8467 32.1266 48.5521 32.1266C48.0701 32.1266 47.6952 32.0194 47.4542 31.7784C47.2936 31.6178 47.1597 31.4303 47.0793 31.1893C46.999 30.9751 46.9454 30.6805 46.9454 30.3324H50.4802V30.0914C50.4802 29.3684 50.3195 28.8061 49.9982 28.4044C49.6233 27.8956 49.0877 27.6546 48.3647 27.6546C47.7488 27.6546 47.24 27.8688 46.8383 28.2705C46.3563 28.7525 46.1153 29.3952 46.1153 30.1985C46.1153 30.9215 46.276 31.4839 46.6509 31.9391C47.1061 32.4747 47.6952 32.7157 48.5521 32.7157C49.4626 32.8228 50.0785 32.5014 50.4802 31.9391ZM48.4182 28.3508C48.7931 28.3508 49.0877 28.4579 49.3019 28.6454C49.5429 28.8596 49.6768 29.2613 49.7036 29.7701H46.9722C47.1864 28.8328 47.6417 28.3508 48.4182 28.3508ZM51.712 32.7157H52.4885V29.6897C52.4885 29.3148 52.5956 29.0203 52.7831 28.7793C53.0241 28.5115 53.3722 28.3776 53.7739 28.3776C54.122 28.3776 54.363 28.4847 54.5237 28.6454C54.7379 28.8596 54.7915 29.1542 54.7915 29.6094V32.7157H55.568V29.663C55.568 29.0738 55.4341 28.6186 55.1931 28.2705C54.9254 27.8956 54.4701 27.6814 53.9346 27.6814C53.2115 27.6814 52.7563 27.9491 52.435 28.5383V27.7885H51.6852V32.7157H51.712ZM56.6392 28.4312H57.389V31.591C57.389 31.9391 57.4961 32.2069 57.6835 32.4479C57.9245 32.6889 58.2726 32.8228 58.6743 32.8228C59.0492 32.8228 59.3973 32.7157 59.6919 32.4747L59.3973 31.9391C59.1831 32.0998 58.9421 32.1801 58.7279 32.1801C58.353 32.1801 58.1387 31.9391 58.1387 31.4571V28.4312H59.3973V27.7885H58.1387V26.3157L57.3622 26.5299V27.8153H56.6124V28.4312H56.6392Z" fill="#023430"/>
<path d="M64.4049 31.9392L63.8158 31.4571C63.6551 31.6981 63.4409 31.8588 63.2267 31.9659C63.0124 32.073 62.7714 32.1266 62.4769 32.1266C61.9949 32.1266 61.62 32.0195 61.379 31.7785C61.2183 31.6178 61.0844 31.4304 61.0041 31.1894C60.9237 30.9751 60.8702 30.6806 60.8702 30.3325H64.4049V30.0915C64.4049 29.3684 64.2442 28.8061 63.9229 28.4044C63.548 27.8956 63.0124 27.6546 62.2894 27.6546C61.6735 27.6546 61.1647 27.8689 60.7631 28.2705C60.281 28.7525 60.04 29.3952 60.04 30.1986C60.04 30.9216 60.2007 31.4839 60.5756 31.9392C61.0308 32.4747 61.62 32.7157 62.4769 32.7157C63.3873 32.8228 64.0032 32.5015 64.4049 31.9392ZM62.3162 28.3509C62.6911 28.3509 62.9856 28.458 63.1999 28.6454C63.4409 28.8597 63.5748 29.2613 63.6015 29.7701H60.8702C61.1112 28.8329 61.5396 28.3509 62.3162 28.3509ZM68.984 32.7157H69.7605V25.5927H68.984V28.5919C68.6091 27.976 68.0735 27.7082 67.3505 27.7082C66.7614 27.7082 66.2526 27.9224 65.8777 28.3241C65.4225 28.8061 65.235 29.4488 65.235 30.2521C65.235 30.9751 65.3957 31.591 65.7438 32.0195C66.1187 32.5551 66.6543 32.7961 67.3505 32.7961C68.0735 32.7961 68.6091 32.5015 68.984 31.9124V32.7157ZM68.5823 28.8061C68.8769 29.1542 69.0643 29.6094 69.0643 30.2789C69.0643 30.868 68.9572 31.2965 68.7162 31.6178C68.4484 31.9927 68.0467 32.2069 67.5379 32.2069C66.5739 32.2069 66.1187 31.591 66.1187 30.3325C66.1187 29.7433 66.2258 29.3149 66.4668 28.9668C66.7078 28.5919 67.0827 28.3776 67.5915 28.3776C67.9396 28.3509 68.3145 28.4848 68.5823 28.8061ZM73.6434 28.4312H74.3664V32.7157H75.143V28.4312H76.2676V27.7885H75.143V27.0387C75.143 26.771 75.2233 26.5567 75.3572 26.4228C75.4911 26.2889 75.6517 26.1818 75.866 26.1818C76.0802 26.1818 76.2676 26.2622 76.5087 26.3425L76.7229 25.7266C76.4551 25.5927 76.1338 25.4856 75.8392 25.4856C75.384 25.4856 75.0626 25.6195 74.8216 25.8605C74.5271 26.1283 74.3664 26.5299 74.3664 27.0923V27.7617H73.6434V28.4312Z" fill="#023430"/>
<path d="M77.4993 28.3508C76.9905 28.8329 76.7495 29.4755 76.7495 30.2789C76.7495 30.9483 76.9637 31.5375 77.3386 32.0195C77.7939 32.555 78.3562 32.8228 79.0792 32.8228C79.7219 32.8228 80.2307 32.6086 80.6859 32.1801C81.1947 31.6981 81.4357 31.0554 81.4357 30.2521C81.4357 29.5826 81.2215 28.9935 80.8466 28.5115C80.3914 27.9759 79.829 27.7082 79.106 27.7082C78.4365 27.7082 77.9278 27.9224 77.4993 28.3508ZM80.1503 28.8061C80.4449 29.1542 80.6324 29.6094 80.6324 30.2789C80.6324 30.8144 80.4985 31.2697 80.2575 31.6178C79.9897 31.9927 79.588 32.2069 79.106 32.2069C78.6508 32.2069 78.3294 32.073 78.0616 31.7517C77.7671 31.4036 77.5796 30.9483 77.5796 30.3324C77.5796 29.7969 77.7135 29.3149 77.9545 28.9935C78.2223 28.6186 78.624 28.4044 79.1328 28.4044C79.5344 28.3508 79.8826 28.5383 80.1503 28.8061ZM82.6943 32.7157H83.4709V29.9843C83.4709 29.5023 83.578 29.181 83.7386 28.8596C83.9529 28.5115 84.2742 28.3776 84.7027 28.3776C84.9169 28.3776 85.0775 28.4044 85.2918 28.5115L85.5863 27.8688C85.3453 27.7349 85.0776 27.6546 84.783 27.6546C84.1939 27.6546 83.7654 27.9492 83.4441 28.5383V27.7617H82.6675V32.7157H82.6943ZM91.1562 32.5818L90.8884 31.9927C90.7545 32.0998 90.5939 32.1534 90.4064 32.1534C90.0315 32.1534 89.8709 31.9391 89.8709 31.5642V25.6462H89.0943V31.5375C89.0943 32.3944 89.496 32.8228 90.2725 32.8228C90.6474 32.8228 90.9152 32.7157 91.1562 32.5818ZM91.906 25.8872C91.7989 25.9944 91.7721 26.1282 91.7721 26.2621C91.7721 26.396 91.7989 26.5299 91.906 26.637C92.0131 26.7441 92.147 26.7709 92.2809 26.7709C92.4148 26.7709 92.5487 26.7441 92.6558 26.637C92.7629 26.5299 92.7897 26.396 92.7897 26.2621C92.7897 26.1282 92.7629 25.9944 92.6558 25.8872C92.5487 25.7801 92.4148 25.7534 92.2809 25.7534C92.1202 25.7266 92.0131 25.7801 91.906 25.8872ZM91.906 32.7157H92.6826V27.7885H91.906V32.7157Z" fill="#023430"/>
<path d="M93.7537 28.4312H94.4767V32.7157H95.2532V28.4312H96.3779V27.7885H95.2532V27.0387C95.2532 26.771 95.3336 26.5567 95.4675 26.4228C95.6014 26.2889 95.762 26.1818 95.9763 26.1818C96.1905 26.1818 96.3779 26.2622 96.6189 26.3425L96.8332 25.7266C96.5654 25.5927 96.244 25.4856 95.9495 25.4856C95.4942 25.4856 95.1729 25.6195 94.9319 25.8605C94.6373 26.1283 94.4767 26.5299 94.4767 27.0923V27.7617H93.7537V28.4312ZM101.144 31.9392L100.555 31.4571C100.395 31.6982 100.18 31.8588 99.9662 31.9659C99.752 32.073 99.511 32.1266 99.2164 32.1266C98.7344 32.1266 98.3595 32.0195 98.1185 31.7785C97.9578 31.6178 97.824 31.4304 97.7436 31.1894C97.6633 30.9751 97.6097 30.6806 97.6097 30.3325H101.144V30.0915C101.144 29.3684 100.984 28.8061 100.662 28.4044C100.288 27.8956 99.752 27.6546 99.029 27.6546C98.4131 27.6546 97.9043 27.8689 97.5026 28.2705C97.0206 28.7525 96.7796 29.3952 96.7796 30.1986C96.7796 30.9216 96.9403 31.4839 97.3152 31.9392C97.7704 32.4747 98.3595 32.7157 99.2164 32.7157C100.127 32.8228 100.743 32.5015 101.144 31.9392ZM99.0825 28.3509C99.4574 28.3509 99.752 28.458 99.9662 28.6454C100.207 28.8597 100.341 29.2613 100.368 29.7701H97.6365C97.8507 28.8329 98.3327 28.3509 99.0825 28.3509Z" fill="#023430"/>
</g>
<defs>
<clipPath id="clip0">
<rect width="100.418" height="32" fill="white" transform="translate(0.806396 0.849609)"/>
</clipPath>
</defs>
</svg>
