<svg width="92" height="48" viewBox="0 0 92 48" fill="none" xmlns="http://www.w3.org/2000/svg">
<g clip-path="url(#clip0_2238:940)">
<path d="M45.4423 32.1003C45.3237 32.0678 43.4975 31.5967 41.5568 31.5967C37.8826 31.5967 35.6705 33.5815 35.6705 36.5373C35.6705 39.1537 37.521 40.4586 39.742 41.1605C39.9882 41.2417 40.351 41.3554 40.5926 41.4354C41.5812 41.7466 42.3704 42.2089 42.3704 43.0097C42.3704 43.9053 41.4583 44.4851 39.4756 44.4851C37.7332 44.4851 36.0627 43.9866 35.7109 43.8977V47.5344C35.907 47.576 37.8923 47.9659 40.013 47.9659C43.0635 47.9659 46.553 46.6325 46.553 42.6628C46.553 40.7373 45.3746 38.9647 42.7875 38.1419L41.6877 37.7916C41.0316 37.5845 39.8603 37.2489 39.8603 36.2868C39.8603 35.5268 40.7281 34.9916 42.3262 34.9916C43.705 34.9916 45.383 35.4552 45.4423 35.4737V32.1003ZM79.1296 39.7815C79.1296 42.0809 77.3691 43.9411 75.0067 43.9411C72.6418 43.9411 70.8859 42.0809 70.8859 39.7815C70.8859 37.4868 72.6418 35.6257 75.0067 35.6257C77.3691 35.6257 79.1296 37.4868 79.1296 39.7815ZM75.0067 31.6017C70.1481 31.6017 66.6637 35.2678 66.6637 39.7815C66.6637 44.3024 70.1481 47.9659 75.0067 47.9659C79.8649 47.9659 83.3544 44.3024 83.3544 39.7815C83.3544 35.2678 79.8649 31.6017 75.0067 31.6017ZM30.3249 47.6847H26.3384V31.8817H30.3249" fill="#001E2B"/>
<path d="M20.8587 32.1679C20.4842 32.0567 19.0995 31.6016 17.224 31.6016C12.373 31.6016 8.81201 35.0618 8.81201 39.7814C8.81201 44.8731 12.743 47.9658 17.224 47.9658C19.0044 47.9658 20.3634 47.5439 20.8587 47.4032V43.1611C20.6874 43.2563 19.3844 43.9999 17.5098 43.9999C14.8541 43.9999 13.1411 42.13 13.1411 39.7814C13.1411 37.3611 14.9282 35.5662 17.5098 35.5662C19.4164 35.5662 20.6984 36.3262 20.8587 36.41" fill="#001E2B"/>
<path d="M62.3372 32.1679C61.9627 32.0567 60.578 31.6016 58.7026 31.6016C53.8516 31.6016 50.2905 35.0618 50.2905 39.7814C50.2905 44.8731 54.2215 47.9658 58.7026 47.9658C60.4829 47.9658 61.8419 47.5439 62.3372 47.4032V43.1611C62.1659 43.2563 60.8629 43.9999 58.9883 43.9999C56.3326 43.9999 54.6197 42.13 54.6197 39.7814C54.6197 37.3611 56.4067 35.5662 58.9883 35.5662C60.8949 35.5662 62.1769 36.3262 62.3372 36.41" fill="#001E2B"/>
<path d="M26.3265 2.0051C26.3265 0.915839 25.4372 0.0324707 24.3471 0.0324707C23.2575 0.0324707 22.3682 0.915839 22.3682 2.0051V22.9904C22.3682 24.0859 23.2575 24.9689 24.3471 24.9689C25.4372 24.9689 26.3265 24.0859 26.3265 22.9904V2.0051ZM15.4557 9.45436C15.4557 8.36552 14.5668 7.48089 13.4768 7.48089C12.3867 7.48089 11.4978 8.36552 11.4978 9.45436V19.048C11.4978 20.1432 12.3867 21.0266 13.4768 21.0266C14.5668 21.0266 15.4557 20.1432 15.4557 19.048V9.45436ZM4.58535 14.8994C4.58535 13.8102 3.69647 12.9272 2.6064 12.9272C1.51759 12.9272 0.627441 13.8102 0.627441 14.8994V19.048C0.627441 20.1432 1.51759 21.0266 2.6064 21.0266C3.69647 21.0266 4.58535 20.1432 4.58535 19.048" fill="#001E2B"/>
<path d="M69.6766 2.00388C69.6766 0.914618 68.7873 0.03125 67.6972 0.03125C66.6076 0.03125 65.7183 0.914618 65.7183 2.00388V22.9891C65.7183 24.0847 66.6076 24.9677 67.6972 24.9677C68.7873 24.9677 69.6766 24.0847 69.6766 22.9891V2.00388ZM58.8058 9.45314C58.8058 8.3643 57.9169 7.47967 56.8269 7.47967C55.7368 7.47967 54.8479 8.3643 54.8479 9.45314V19.0468C54.8479 20.142 55.7368 21.0254 56.8269 21.0254C57.9169 21.0254 58.8058 20.142 58.8058 19.0468V9.45314ZM47.9355 14.8982C47.9355 13.8089 47.0466 12.926 45.9565 12.926C44.8677 12.926 43.9775 13.8089 43.9775 14.8982V19.0468C43.9775 20.142 44.8677 21.0254 45.9565 21.0254C47.0466 21.0254 47.9355 20.142 47.9355 19.0468" fill="#001E2B"/>
<path d="M33.3839 9.45297C33.3839 8.36412 34.2728 7.47949 35.3628 7.47949C36.4529 7.47949 37.3418 8.36412 37.3418 9.45297V19.0466C37.3418 20.1418 36.4529 21.0252 35.3628 21.0252C34.2728 21.0252 33.3839 20.1418 33.3839 19.0466V9.45297Z" fill="#001E2B"/>
<path d="M76.7337 9.45297C76.7337 8.36412 77.6226 7.47949 78.7127 7.47949C79.8027 7.47949 80.6916 8.36412 80.6916 9.45297V19.0466C80.6916 20.1418 79.8027 21.0252 78.7127 21.0252C77.6226 21.0252 76.7337 20.1418 76.7337 19.0466V9.45297ZM87.6041 14.898C87.6041 13.8088 88.493 12.9258 89.5831 12.9258C90.6719 12.9258 91.562 13.8088 91.562 14.898V19.0466C91.562 20.1418 90.6719 21.0252 89.5831 21.0252C88.493 21.0252 87.6041 20.1418 87.6041 19.0466" fill="#001E2B"/>
</g>
<defs>
<clipPath id="clip0_2238:940">
<rect width="90.9091" height="48" fill="white" transform="translate(0.627441)"/>
</clipPath>
</defs>
</svg>
