<svg width="203" height="34" viewBox="0 0 203 34" fill="none" xmlns="http://www.w3.org/2000/svg">
<path d="M18.0557 19.701C16.5345 19.701 15.6652 18.8536 15.6652 17.3707V13.5577C15.6652 13.0281 15.3392 12.6044 14.7959 12.4985C14.6872 12.4985 14.6872 12.4985 14.5786 12.4985H9.36286C8.81956 12.4985 8.38491 12.8162 8.27625 13.3458C8.27625 13.4517 8.27625 13.4517 8.27625 13.5577V17.3707C8.27625 18.8536 7.40697 19.701 5.88572 19.701H2.51724C0.995994 19.701 0.126709 18.8536 0.126709 17.3707V2.96574C0.126709 1.48287 0.995994 0.635515 2.51724 0.635515H5.99438C7.51563 0.635515 8.38491 1.48287 8.38491 2.96574V5.61372C8.38491 6.14331 8.71089 6.56699 9.2542 6.67291C9.36286 6.67291 9.36286 6.67291 9.47152 6.67291H14.7959C15.3392 6.67291 15.7738 6.35515 15.8825 5.82556C15.8825 5.71964 15.8825 5.71964 15.8825 5.61372V2.96574C15.8825 1.48287 16.6431 0.635515 18.273 0.635515H21.7502C23.2714 0.635515 24.1407 1.48287 24.1407 2.96574V17.3707C24.1407 18.8536 23.2714 19.701 21.7502 19.701C21.5328 19.5951 18.0557 19.5951 18.0557 19.701ZM33.4855 19.9128C29.6824 19.9128 27.8352 18.2181 27.8352 14.9346V2.96574C27.8352 1.48287 28.7044 0.635515 30.2257 0.635515H33.3768C34.8981 0.635515 35.7674 1.48287 35.7674 2.96574V12.3925C35.7674 13.6636 36.7453 13.8754 37.5059 13.8754C38.2666 13.8754 39.0272 13.7695 39.6792 13.7695C40.2225 13.7695 40.6571 13.3458 40.6571 12.8162V2.96574C40.6571 1.48287 41.5264 0.635515 43.0476 0.635515H46.3075C47.8287 0.635515 48.698 1.48287 48.698 2.96574V17.3707C48.698 18.8536 47.9374 19.701 46.3075 19.701H44.5689C43.4823 19.701 42.7217 19.3832 42.287 18.7477L42.1784 18.6418C42.0697 18.4299 41.7437 18.2181 41.4177 18.2181C41.2004 18.2181 41.0917 18.324 40.8744 18.4299C38.4839 19.3832 35.9847 19.9128 33.4855 19.9128ZM78.145 19.701C76.6238 19.701 75.7545 18.8536 75.7545 17.3707V7.94394C75.7545 6.99067 75.3198 6.56699 74.2332 6.56699H73.6899C73.3639 6.56699 72.9293 6.56699 72.6033 6.67291C72.06 6.77883 71.6254 7.30843 71.734 7.83802V17.4767C71.734 18.9595 70.8647 19.8069 69.3435 19.8069H66.5183C64.9971 19.8069 64.1278 18.9595 64.1278 17.4767V7.94394C64.1278 6.99067 63.5845 6.56699 62.4979 6.56699C61.9546 6.56699 61.4113 6.56699 60.9766 6.67291C60.4333 6.77883 59.9987 7.20251 59.9987 7.83802V17.4767C59.9987 18.9595 59.1294 19.8069 57.6082 19.8069H54.457C52.9358 19.8069 52.0665 18.9595 52.0665 17.4767V2.96574C52.0665 1.48287 52.9358 0.635515 54.457 0.635515H56.0869C57.0649 0.635515 57.7168 0.847354 58.2601 1.37695L58.3688 1.58879C58.5861 1.80063 58.8034 2.11838 59.1294 2.11838C59.3467 2.11838 59.4554 2.01246 59.6727 2.01246C61.7373 0.741434 64.0191 0.105919 66.301 0.105919C68.2569 0.105919 69.6695 0.635515 70.5388 1.58879C70.7561 1.80063 70.9734 2.01246 71.2994 2.01246C71.5167 2.01246 71.734 1.90655 71.9513 1.80063C73.6899 0.635515 75.7545 0.105919 78.145 0.105919C81.8395 0.105919 83.6867 1.90655 83.6867 5.29596V17.3707C83.6867 18.8536 82.8174 19.701 81.2962 19.701C81.2962 19.5951 78.145 19.5951 78.145 19.701ZM92.9228 20.2306C91.0756 20.2306 89.4457 19.8069 88.2504 18.8536C86.9465 17.9003 86.2946 16.4175 86.2946 14.9346V13.0281C86.2946 10.0623 88.6851 8.2617 92.5969 8.2617H98.3559C99.0078 8.15578 99.0078 7.62618 99.0078 7.41434V7.09659C99.0078 5.82556 98.1385 5.61372 96.4 5.61372C94.6614 5.61372 92.5969 5.61372 89.8803 5.71964H89.7717C88.3591 5.71964 87.5985 4.87228 87.3812 3.38941C87.2725 2.7539 87.3812 2.11838 87.8158 1.58879C88.2504 1.05919 88.7937 0.741434 89.4457 0.741434C92.5969 0.317758 95.5307 0.105919 98.4645 0.105919C104.55 0.105919 106.94 2.33022 106.94 7.83802V17.3707C106.94 18.6418 105.962 19.701 104.658 19.701C104.55 19.701 104.55 19.701 104.441 19.701H102.268C101.507 19.701 100.746 19.3832 100.42 18.8536L100.312 18.5359C100.312 18.2181 100.094 18.1122 99.9858 18.1122C99.8771 18.1122 99.7685 18.2181 99.6598 18.2181C97.9212 19.5951 95.6394 20.2306 92.9228 20.2306ZM95.748 11.6511C94.6614 11.6511 94.0095 12.1807 94.0095 13.134V13.7695C94.0095 14.5109 94.5527 15.2524 95.9653 15.2524C96.726 15.2524 97.5952 15.1464 98.3559 15.0405C98.7905 15.0405 99.2252 14.6169 99.1165 14.0873V12.6044C99.1165 12.0748 98.7905 11.757 98.2472 11.757L95.748 11.6511ZM125.847 19.701C124.326 19.701 123.456 18.8536 123.456 17.3707V7.94394C123.456 6.99067 122.913 6.56699 121.827 6.56699C120.957 6.56699 120.088 6.56699 119.327 6.67291C118.675 6.77883 118.349 7.09659 118.349 7.7321V17.3707C118.349 18.8536 117.48 19.701 115.959 19.701H112.808C111.286 19.701 110.417 18.8536 110.417 17.3707V2.96574C110.417 1.48287 111.286 0.635515 112.808 0.635515H114.546C115.416 0.635515 116.176 0.953273 116.72 1.58879L116.828 1.69471C116.937 2.01246 117.263 2.2243 117.589 2.2243C117.806 2.2243 118.023 2.11838 118.241 2.01246C120.849 0.741434 123.348 0 125.521 0C129.541 0 131.606 2.33022 131.606 6.77883V17.2648C131.606 18.7477 130.737 19.5951 129.215 19.5951L125.847 19.701Z" fill="#001E2B"/>
<path d="M137.365 0.635498H140.516C141.82 0.635498 142.907 1.69469 142.907 2.96572V17.3707C142.907 18.6418 141.82 19.701 140.516 19.701H137.365C136.061 19.701 134.975 18.6418 134.975 17.3707V2.96572C135.083 1.69469 136.061 0.635498 137.365 0.635498Z" fill="#001E2B"/>
<path d="M154.533 19.7008C153.012 19.7008 152.143 18.9594 152.143 17.4765V8.36745H148.231C146.601 8.36745 145.732 7.5201 145.732 6.03723V2.96557C145.732 1.4827 146.601 0.635347 148.231 0.635347H163.987C165.617 0.635347 166.486 1.4827 166.486 2.96557V6.03723C166.486 7.5201 165.617 8.36745 163.987 8.36745H160.075V17.4765C160.075 18.8535 159.206 19.7008 157.685 19.7008H154.533ZM196.694 19.7008C196.042 19.7008 195.39 19.3831 194.738 18.8535L191.043 15.57L187.349 18.8535C186.697 19.3831 186.045 19.7008 185.393 19.7008C184.741 19.7008 184.089 19.3831 183.437 18.8535L180.938 16.6292C180.286 16.0996 179.96 15.464 179.96 14.9344C179.96 14.4048 180.286 13.7693 180.938 13.2397L184.632 9.95624L180.938 6.67274C180.286 6.14315 179.96 5.50763 179.96 4.97804C179.96 4.44844 180.286 3.81292 180.938 3.28333L183.437 1.05902C184.089 0.529428 184.741 0.21167 185.393 0.21167C186.045 0.21167 186.697 0.529428 187.349 1.05902L191.043 4.34252L194.738 1.05902C195.39 0.529428 196.042 0.21167 196.694 0.21167C197.346 0.21167 197.998 0.529428 198.65 1.05902L201.149 3.28333C201.801 3.81292 202.127 4.44844 202.127 4.97804C202.127 5.50763 201.801 6.14315 201.149 6.67274L197.454 9.95624L201.149 13.2397C201.801 13.7693 202.127 14.4048 202.127 14.9344C202.127 15.464 201.801 16.0996 201.149 16.6292L198.65 18.8535C197.998 19.3831 197.346 19.7008 196.694 19.7008Z" fill="#001E2B"/>
<path d="M171.593 0.635498H174.744C176.048 0.635498 177.135 1.69469 177.135 2.96572V17.3707C177.135 18.6418 176.048 19.701 174.744 19.701H171.593C170.289 19.701 169.203 18.6418 169.203 17.3707V2.96572C169.311 1.69469 170.289 0.635498 171.593 0.635498Z" fill="#001E2B"/>
<path d="M176.483 34C175.288 34 174.092 33.8941 172.897 33.7881C172.136 33.6822 171.484 33.3645 171.05 32.7289C170.615 32.0934 170.506 31.352 170.615 30.7165L170.941 29.0218C171.267 27.7507 172.462 26.7975 173.875 27.0093C174.744 27.1152 175.614 27.1152 176.374 27.1152C181.155 27.1152 185.719 25.5264 188.001 23.0903C188.87 22.2429 190.174 22.0311 191.261 22.5607L192.891 23.4081C194.195 24.1495 194.629 25.6324 193.869 26.9034C193.76 27.0093 193.651 27.2211 193.543 27.3271C189.957 31.5638 183.546 34 176.483 34Z" fill="#001E2B"/>
</svg>
