<svg width="127" height="48" viewBox="0 0 127 48" fill="none" xmlns="http://www.w3.org/2000/svg">
<g clip-path="url(#clip0_2250:5281)">
<path fill-rule="evenodd" clip-rule="evenodd" d="M20.7448 8.09544C20.3153 4.58499 18.6687 1.71932 17.0221 1.71932C15.2323 1.71932 13.7289 4.22678 13.1562 8.09544H12.8698C9.36189 7.37902 7.42894 6.30439 7.42894 5.01484C7.42894 3.08051 11.5812 1.57603 16.7358 1.57603C22.0335 1.57603 26.4721 3.08051 26.4721 5.01484C26.4721 6.30439 24.2528 7.59395 20.7448 8.09544ZM33.4164 10.8895C33.4164 4.87156 26.1858 0.214844 16.8789 0.214844C7.7153 0.214844 0.484619 4.79992 0.484619 10.7462C0.484619 16.8357 7.7153 21.4925 17.0221 21.4925C26.0426 21.4925 33.4164 16.8357 33.4164 10.8895ZM18.1676 20.2029C20.1005 18.4119 20.9596 15.3313 20.9596 10.7462L21.1028 10.6029C25.8278 10.0298 29.0494 7.95215 29.0494 5.73126V5.58798C30.4096 7.09246 30.9823 8.66857 30.9823 10.4596C31.0539 15.4745 25.3983 19.773 18.1676 20.2029ZM4.78007 5.44469C4.63689 5.58797 4.63689 5.58798 4.63689 5.73126C4.63689 7.95215 7.85848 9.88649 12.7983 10.6029L12.9414 10.7462V11.0328C12.9414 15.4745 13.9437 18.5551 15.7335 20.2029C8.21644 19.6298 2.84712 15.4745 2.84712 10.3163C2.84712 8.66857 3.41985 6.87753 4.78007 5.44469ZM19.2414 8.382H19.0983C18.5255 8.382 17.738 8.382 17.0221 8.382C16.0914 8.382 15.3755 8.382 14.8028 8.382L14.5164 8.23872C14.946 5.73126 15.8767 4.22678 16.8789 4.22678C18.096 4.22678 18.8119 5.58798 19.2414 8.23872V8.382ZM19.5278 10.8895C19.3846 14.4716 18.3823 16.979 17.0221 16.979C15.5187 16.979 14.5164 14.4716 14.3733 10.8895H14.5164C15.2323 10.8895 16.163 11.0328 17.1653 11.0328C18.3823 11.0328 18.6687 11.0327 19.5278 10.8895Z" fill="#001E2B"/>
<path fill-rule="evenodd" clip-rule="evenodd" d="M49.2381 6.30453H44.5131V18.412H41.0767V6.30453H36.4949V3.5105H49.2381V6.30453Z" fill="#001E2B"/>
<path fill-rule="evenodd" clip-rule="evenodd" d="M62.1961 11.0328C62.1961 13.9701 60.4064 16.0477 57.9007 16.0477C55.2518 16.0477 53.4621 14.1134 53.4621 11.0328C53.6052 8.09549 55.2518 6.01788 57.9007 6.01788C60.478 6.01788 62.1961 8.09549 62.1961 11.0328ZM65.7757 11.0328C65.7757 6.59101 62.1961 3.08057 57.9007 3.08057C53.4621 3.08057 49.9541 6.59101 49.9541 11.1761C49.9541 15.4746 53.5336 19.0567 57.8291 19.0567C62.3393 18.985 65.7757 15.4746 65.7757 11.0328Z" fill="#001E2B"/>
<path fill-rule="evenodd" clip-rule="evenodd" d="M75.3688 12.9672V18.412H71.9325V12.9672L66.062 3.5105H69.8563L73.5791 9.67169L77.445 3.5105H81.3825L75.3688 12.9672Z" fill="#001E2B"/>
<path fill-rule="evenodd" clip-rule="evenodd" d="M93.5528 11.0328C93.5528 13.9701 91.9062 16.0477 89.2573 16.0477C86.6085 16.0477 84.9619 14.1134 84.9619 11.0328C84.9619 8.09549 86.7516 6.01788 89.4005 6.01788C91.9062 6.01788 93.5528 8.09549 93.5528 11.0328ZM97.2039 11.0328C97.2039 6.59101 93.696 3.08057 89.2573 3.08057C84.9619 3.08057 81.3823 6.59101 81.3823 11.1761C81.3823 15.4746 84.8187 19.0567 89.2573 19.0567C93.696 19.0567 97.2039 15.4746 97.2039 11.0328Z" fill="#001E2B"/>
<path fill-rule="evenodd" clip-rule="evenodd" d="M110.663 6.30453H105.938V18.412H102.502V6.30453H97.9915V3.5105H110.663V6.30453Z" fill="#001E2B"/>
<path fill-rule="evenodd" clip-rule="evenodd" d="M117.822 6.73438L119.898 12.4657H115.603L117.822 6.73438ZM119.898 3.5105H115.746L109.661 18.412H113.384L114.601 15.1165H120.972L122.332 18.412H125.984L119.898 3.5105Z" fill="#001E2B"/>
<rect x="0.126709" y="30.0391" width="126" height="17.7044" fill="#001E2B"/>
<path d="M6.59937 35.3938H9.36101L10.4398 39.5392L11.5185 35.3938H14.2802V42.1733H12.5542V36.9915L11.2165 42.1733H9.66306L8.32539 36.9915V42.1733H6.59937V35.3938Z" fill="white"/>
<path d="M19.8465 41.0506H17.4732L17.128 42.1733H14.9705L17.5163 35.3938H19.8033L22.3924 42.1733H20.1917L19.8465 41.0506ZM19.415 39.5824L18.6814 37.1211L17.9047 39.5824H19.415Z" fill="white"/>
<path d="M22.0041 35.3938H28.3904V37.0779H26.2329V42.1733H24.1185V37.0779H21.9609V35.3938H22.0041Z" fill="white"/>
<path d="M29.3831 35.3938H34.9926V36.862H31.4543V37.9415H34.7337V39.3233H31.4543V40.6619H35.0789V42.1733H29.3831V35.3938Z" fill="white"/>
<path d="M36.3733 42.173V35.3936H39.8685C40.5158 35.3936 41.0336 35.4367 41.3356 35.5663C41.6377 35.6958 41.9397 35.8685 42.1555 36.1708C42.3712 36.4731 42.4575 36.8185 42.4575 37.2935C42.4575 37.6822 42.3712 37.9844 42.1986 38.2867C42.026 38.589 41.8534 38.7185 41.5945 38.8912C41.4219 39.0208 41.163 39.1072 40.861 39.1503C41.1199 39.2367 41.2925 39.3231 41.4219 39.4094C41.5082 39.4526 41.5945 39.5821 41.7671 39.7549C41.8966 39.9276 42.026 40.0571 42.0692 40.1867L43.1048 42.173H40.6884L39.5664 40.1003C39.437 39.8412 39.3075 39.6685 39.1781 39.5821C39.0055 39.4958 38.876 39.4094 38.6603 39.4094H38.4877V42.173H36.3733ZM38.4445 38.114H39.3507C39.437 38.114 39.6527 38.0708 39.9116 38.0276C40.0411 37.9844 40.1705 37.9413 40.2569 37.8117C40.3432 37.6822 40.3863 37.5526 40.3863 37.4231C40.3863 37.2072 40.3 37.0344 40.1706 36.9049C40.0411 36.7754 39.7822 36.7322 39.3938 36.7322H38.4877V38.114H38.4445Z" fill="white"/>
<path d="M43.8816 35.3936H45.996V42.173H43.8816V35.3936Z" fill="white"/>
<path d="M51.7349 41.0503H49.3616L49.0164 42.173H46.8589L49.4048 35.3936H51.6918L54.2377 42.173H52.037L51.7349 41.0503ZM51.3034 39.5821L50.5698 37.1208L49.8363 39.5821H51.3034Z" fill="white"/>
<path d="M55.0144 35.3936H57.1288V40.5321H60.4082V42.173H55.0144V35.3936Z" fill="white"/>
<path d="M64.6804 35.3936H66.7948V37.7685H69.0818V35.3936H71.1962V42.173H69.0818V39.4094H66.7948V42.173H64.6804V35.3936Z" fill="white"/>
<path d="M76.8487 41.0503H74.4754L74.1302 42.173H71.9727L74.5185 35.3936H76.8055L79.3514 42.173H77.1507L76.8487 41.0503ZM76.374 39.5821L75.6405 37.164L74.9069 39.6253H76.374V39.5821Z" fill="white"/>
<path d="M80.1282 35.3936H82.07L84.6159 39.1503V35.3936H86.6008V42.173H84.6159L82.1131 38.4594V42.173H80.1282V35.3936Z" fill="white"/>
<path d="M88.1108 35.3936H91.2177C91.8218 35.3936 92.3396 35.4799 92.728 35.6526C93.1163 35.8254 93.4184 36.0413 93.6773 36.3867C93.9362 36.689 94.1088 37.0776 94.1951 37.4663C94.3245 37.8981 94.3677 38.3299 94.3677 38.8049C94.3677 39.539 94.2814 40.1003 94.1088 40.489C93.9362 40.8776 93.7204 41.223 93.4184 41.4821C93.1163 41.7412 92.8143 41.9139 92.4691 42.0435C91.9944 42.173 91.606 42.2162 91.2177 42.2162H88.1108V35.3936ZM90.2252 36.9049V40.6185H90.743C91.1745 40.6185 91.4766 40.5753 91.6923 40.489C91.9081 40.4026 92.0375 40.2299 92.1239 39.9708C92.2102 39.7117 92.2965 39.3231 92.2965 38.8049C92.2965 38.0708 92.167 37.5958 91.9513 37.3367C91.7355 37.0776 91.3471 36.9481 90.7862 36.9481H90.2252V36.9049Z" fill="white"/>
<path d="M95.5762 35.3936H97.6906V40.5321H100.97V42.173H95.5762V35.3936Z" fill="white"/>
<path d="M102.049 35.3938H104.163V42.1733H102.049V35.3938Z" fill="white"/>
<path d="M105.759 35.3938H107.701L110.247 39.1506V35.3938H112.232V42.1733H110.247L107.701 38.4597V42.1733H105.716V35.3938H105.759Z" fill="white"/>
<path d="M117.151 39.7118V38.2868H120.388V41.18C119.784 41.6118 119.223 41.8709 118.748 42.0436C118.273 42.2163 117.712 42.2595 117.065 42.2595C116.245 42.2595 115.598 42.13 115.08 41.8277C114.562 41.5686 114.174 41.1368 113.915 40.6186C113.656 40.0573 113.484 39.4527 113.484 38.7618C113.484 38.0277 113.656 37.38 113.958 36.8187C114.26 36.2573 114.692 35.8687 115.296 35.5664C115.771 35.3505 116.375 35.2209 117.151 35.2209C117.885 35.2209 118.446 35.3073 118.834 35.4369C119.223 35.5664 119.525 35.7823 119.74 36.0846C119.999 36.3868 120.172 36.7323 120.301 37.1641L118.273 37.5096C118.187 37.2505 118.058 37.0777 117.842 36.905C117.626 36.7755 117.367 36.6891 117.065 36.6891C116.59 36.6891 116.245 36.8618 115.943 37.1641C115.641 37.4664 115.512 37.9846 115.512 38.6755C115.512 39.4095 115.641 39.9277 115.943 40.2732C116.202 40.5754 116.59 40.7482 117.108 40.7482C117.324 40.7482 117.583 40.705 117.799 40.6618C118.014 40.5754 118.273 40.4891 118.532 40.3163V39.6686H117.151V39.7118Z" fill="white"/>
</g>
<defs>
<clipPath id="clip0_2250:5281">
<rect width="126" height="48" fill="white" transform="translate(0.126709)"/>
</clipPath>
</defs>
</svg>
